<?xml version="1.0" encoding="UTF-8"?> <svg xmlns="http://www.w3.org/2000/svg" width="96" height="144" viewBox="0 0 96 144" fill="none"> <path d="M18 0C8.13 0 0 8.13 0 18V126C0 135.87 8.13 144 18 144H78C87.87 144 96 135.87 96 126V18C96 8.13 87.87 0 78 0H18ZM18 12H78C81.33 12 84 14.67 84 18V126C84 129.33 81.33 132 78 132H18C14.67 132 12 129.33 12 126V18C12 14.67 14.67 12 18 12ZM48 114C44.7 114 42 116.7 42 120C42 123.3 44.7 126 48 126C51.3 126 54 123.3 54 120C54 116.7 51.3 114 48 114Z" fill="#51D863"></path> </svg> 